<svg aria-hidden="true" style="position:absolute;width:0;height:0" xmlns="http://www.w3.org/2000/svg" overflow="hidden"><defs><symbol id="icon-home" viewBox="0 0 32 32"><path d="M32 18.451L16 6.031 0 18.451v-5.064L16 .967l16 12.42zM28 18v12h-8v-8h-8v8H4V18l12-9z"/></symbol><symbol id="icon-image" viewBox="0 0 32 32"><path d="M29.996 4l.004.004v23.993l-.004.004H2.003l-.004-.004V4.004L2.003 4h27.993zM30 2H2C.9 2 0 2.9 0 4v24c0 1.1.9 2 2 2h28c1.1 0 2-.9 2-2V4c0-1.1-.9-2-2-2z"/><path d="M26 9a3 3 0 1 1-6 0 3 3 0 0 1 6 0zm2 17H4v-4l7-12 8 10h2l7-6z"/></symbol><symbol id="icon-bullhorn" viewBox="0 0 32 32"><path d="M32 13.414c0-6.279-1.837-11.373-4.109-11.413L27.918 2h-2.592s-6.088 4.573-14.851 6.367c-.268 1.415-.438 3.102-.438 5.047s.171 3.631.438 5.047c8.763 1.794 14.851 6.367 14.851 6.367h2.592l-.027-.001C30.163 24.787 32 19.693 32 13.414zm-4.974 9.688c-.293 0-.61-.304-.773-.486-.395-.439-.775-1.124-1.1-1.979-.727-1.913-1.127-4.478-1.127-7.223s.4-5.309 1.127-7.223c.325-.855.705-1.54 1.1-1.979.163-.182.48-.486.773-.486s.61.304.773.486c.395.439.775 1.124 1.1 1.979.727 1.913 1.127 4.479 1.127 7.223s-.4 5.309-1.127 7.223c-.325.855-.705 1.54-1.1 1.979-.163.181-.48.486-.773.486zM7.869 13.414c0-1.623.119-3.201.345-4.659-1.48.205-2.779.323-4.386.323H1.732l-1.733 2.959v2.755l1.733 2.959h2.096c1.606 0 2.905.118 4.386.323a30.65 30.65 0 0 1-.345-4.659zm3.636 6.654l-4-.766 2.558 10.048a.834.834 0 0 0 1.146.583l3.705-1.483a.853.853 0 0 0 .444-1.221l-3.853-7.161zm15.521-2.92c-.113 0-.235-.117-.298-.187-.152-.169-.299-.433-.424-.763-.28-.738-.434-1.726-.434-2.784s.154-2.046.434-2.784c.125-.33.272-.593.424-.763.063-.07.185-.187.298-.187s.235.117.298.187c.152.169.299.433.424.763.28.737.434 1.726.434 2.784s-.154 2.046-.434 2.784c-.125.33-.272.593-.424.763-.063.07-.185.187-.298.187z"/></symbol><symbol id="icon-feed" viewBox="0 0 32 32"><path d="M12 16a4 4 0 1 1 8 0 4 4 0 0 1-8 0zm8.761-8.796C23.881 8.896 26 12.201 26 16s-2.119 7.104-5.239 8.796C22.138 22.605 23 19.475 23 16s-.862-6.605-2.239-8.796zM9 16c0 3.475.862 6.605 2.239 8.796C8.119 23.104 6 19.799 6 16s2.119-7.104 5.239-8.796C9.862 9.395 9 12.525 9 16zm-6 0c0 5.372 1.7 10.193 4.395 13.491C2.948 26.649 0 21.669 0 16S2.948 5.351 7.395 2.509C4.7 5.807 3 10.628 3 16zM24.605 2.509C29.052 5.351 32 10.331 32 16s-2.948 10.649-7.395 13.491C27.3 26.193 29 21.372 29 16S27.3 5.807 24.605 2.509z"/></symbol><symbol id="icon-file-picture" viewBox="0 0 32 32"><path d="M26 28H6v-4l6-10 8.219 10L26 20v8zm0-13a3 3 0 1 1-6 0 3 3 0 0 1 6 0z"/><path d="M28.681 7.159c-.694-.947-1.662-2.053-2.724-3.116s-2.169-2.03-3.116-2.724C21.229.137 20.448 0 20 0H4.5A2.503 2.503 0 0 0 2 2.5v27C2 30.878 3.122 32 4.5 32h23c1.378 0 2.5-1.122 2.5-2.5V10c0-.448-.137-1.23-1.319-2.841zm-4.138-1.702A27.334 27.334 0 0 1 26.811 8H22V3.189a27.334 27.334 0 0 1 2.543 2.268zM28 29.5c0 .271-.229.5-.5.5h-23a.507.507 0 0 1-.5-.5v-27c0-.271.229-.5.5-.5H20v7a1 1 0 0 0 1 1h7v19.5z"/></symbol><symbol id="icon-paste" viewBox="0 0 32 32"><path d="M22 4h-4V2c0-1.1-.9-2-2-2h-4c-1.1 0-2 .9-2 2v2H6v4h16V4zm-6 0h-4V2.004L12.004 2h3.993l.004.004V4zm10 6V5c0-.55-.45-1-1-1h-2v2h1v4h-6l-6 6v8H4V6h1V4H3c-.55 0-1 .45-1 1v20c0 .55.45 1 1 1h9v6h20V10h-6zm-8 2.828V16h-3.172L18 12.828zM30 30H14V18h6v-6h10v18z"/></symbol><symbol id="icon-folder-upload" viewBox="0 0 32 32"><path d="M18 8l-4-4H0v26h32V8H18zm-2 7l7 7h-5v8h-4v-8H9l7-7z"/></symbol><symbol id="icon-qrcode" viewBox="0 0 32 32"><path d="M10 2H2v8h8V2zm2-2v12H0V0h12zM4 4h4v4H4zm26-2h-8v8h8V2zm2-2v12H20V0h12zm-8 4h4v4h-4zM10 22H2v8h8v-8zm2-2v12H0V20h12zm-8 4h4v4H4zM14 0h2v2h-2zm2 2h2v2h-2zm-2 2h2v2h-2zm2 2h2v2h-2zm-2 2h2v2h-2zm2 2h2v2h-2zm-2 2h2v2h-2zm0 4h2v2h-2zm2 2h2v2h-2zm-2 2h2v2h-2zm2 2h2v2h-2zm-2 2h2v2h-2zm2 2h2v2h-2zm-2 2h2v2h-2zm2 2h2v2h-2zm14-14h2v2h-2zM2 16h2v2H2zm2-2h2v2H4zm-4 0h2v2H0zm8 0h2v2H8zm2 2h2v2h-2zm2-2h2v2h-2zm6 2h2v2h-2zm2-2h2v2h-2zm2 2h2v2h-2zm2-2h2v2h-2zm2 2h2v2h-2zm2-2h2v2h-2zm2 6h2v2h-2zm-12 0h2v2h-2zm2-2h2v2h-2zm2 2h2v2h-2zm4 0h2v2h-2zm2-2h2v2h-2zm2 6h2v2h-2zm-12 0h2v2h-2zm2-2h2v2h-2zm4 0h2v2h-2zm2 2h2v2h-2zm2-2h2v2h-2zm2 6h2v2h-2zm-10-2h2v2h-2zm2 2h2v2h-2zm2-2h2v2h-2zm2 2h2v2h-2zm-6 2h2v2h-2zm4 0h2v2h-2zm4 0h2v2h-2z"/></symbol><symbol id="icon-clock" viewBox="0 0 32 32"><path d="M20.586 23.414L14 16.828V8h4v7.172l5.414 5.414zM16 0C7.163 0 0 7.163 0 16s7.163 16 16 16 16-7.163 16-16S24.837 0 16 0zm0 28C9.373 28 4 22.627 4 16S9.373 4 16 4s12 5.373 12 12-5.373 12-12 12z"/></symbol><symbol id="icon-tv" viewBox="0 0 32 32"><path d="M30.662 9.003a98.793 98.793 0 0 0-8.815-.851L27 2.999l-2-2-7.017 7.017c-.656-.011-1.317-.017-1.983-.017l-8-8-2 2 6.069 6.069c-3.779.133-7.386.454-10.731.935C.478 12.369 0 16.089 0 20s.477 7.63 1.338 10.997C5.827 31.642 10.786 32 16 32s10.173-.358 14.662-1.003C31.522 27.631 32 23.911 32 20s-.477-7.63-1.338-10.997zm-3.665 18.328C23.63 27.761 19.911 28 16 28s-7.63-.239-10.997-.669C4.358 25.087 4 22.607 4 20s.358-5.087 1.003-7.331C8.369 12.239 12.089 12 16 12s7.63.239 10.996.669C27.641 14.913 28 17.393 28 20s-.358 5.087-1.003 7.331z"/></symbol><symbol id="icon-box-remove" viewBox="0 0 32 32"><path d="M26 2H6L0 8v21a1 1 0 0 0 1 1h30a1 1 0 0 0 1-1V8l-6-6zm-6 18v6h-8v-6H6l10-8 10 8h-6zM4.828 6l2-2h18.343l2 2H4.828z"/></symbol><symbol id="icon-redo2" viewBox="0 0 32 32"><path d="M18 7.762V0l12 12-12 12v-7.932C4.039 15.74 4.638 25.561 8.192 32-.58 22.518 1.283 7.326 18 7.762z"/></symbol><symbol id="icon-user-check" viewBox="0 0 32 32"><path d="M30 19l-9 9-3-3-2 2 5 5 11-11z"/><path d="M14 24h10v-3.598c-2.101-1.225-4.885-2.066-8-2.321v-1.649c2.203-1.242 4-4.337 4-7.432 0-4.971 0-9-6-9S8 4.029 8 9c0 3.096 1.797 6.191 4 7.432v1.649c-6.784.555-12 3.888-12 7.918h14v-2z"/></symbol></defs></svg>